#!OML:ASF H:\ManfredETheater\Project 1\Capture day 1\Session 1\subject.ASF
:FULLY-SPECIFIED
:DEGREES
61
root -0.779675 15.4349 10.0161 -177.766 12.5674 -175.431
lowerback 16.2777 0.491868 3.97563
upperback 1.3917 2.23883 4.7964
thorax -7.71382 1.23473 2.36138
lowerneck -17.1153 0.291561 1.17677
upperneck 8.38084 0.630344 -3.59985
head 5.31563 0.0994947 -1.26586
rclavicle 9.74045e-015 2.70347e-014
rhumerus -36.7772 14.4608 -91.3981
rradius 97.9362
rwrist 4.23267
rhand -25.1579 8.10382
rfingers 7.12502
rthumb 1.35902 -21.8716
lclavicle 9.74045e-015 2.70347e-014
lhumerus -75.418 -11.2742 100.511
lradius 85.1054
lwrist 10.371
lhand -26.9995 -0.405884
lfingers 7.12502
lthumb -0.419631 29.5734
rfemur -10.0708 -4.66033 21.5933
rtibia 70.4829
rfoot -17.5523 -10.7137
rtoes -45.6623
lfemur -59.3361 2.13133 -5.86488
ltibia 43.2744
lfoot -8.73432 -1.40791
ltoes -20.204
62
root -0.774662 15.4338 9.40355 -178.297 13.0965 -175.562
lowerback 15.7125 0.776637 3.63038
upperback 1.50292 2.50062 4.82491
thorax -7.29797 1.37519 2.53565
lowerneck -17.2166 0.157505 1.02359
upperneck 9.02645 0.458825 -3.35226
head 5.53029 0.0175906 -1.18238
rclavicle -4.55217e-014 -7.4743e-014
rhumerus -37.7071 15.0195 -92.1368
rradius 97.3695
rwrist 4.32986
rhand -24.3454 8.10586
rfingers 7.12502
rthumb 2.14376 -21.8631
lclavicle -4.55217e-014 -7.4743e-014
lhumerus -77.4641 -10.3067 100.652
lradius 87.2536
lwrist 11.2413
lhand -26.9867 -0.663698
lfingers 7.12502
lthumb -0.407249 29.3157
rfemur -8.44463 -3.58368 20.4447
rtibia 70.9628
rfoot -14.7534 -8.14762
rtoes -43.3557
lfemur -57.0944 0.627745 -4.08119
ltibia 37.3719
lfoot -7.31945 0.403923
ltoes -20.6077
63
root -0.774344 15.4219 8.78554 -178.867 13.6821 -175.63
lowerback 15.1695 0.998054 3.38144
upperback 1.6109 2.70789 4.88103
thorax -6.89813 1.48748 2.70102
lowerneck -17.3322 0.0729022 0.859742
upperneck 9.76765 0.356818 -3.09717
head 5.78077 -0.0295894 -1.08872
rclavicle -9.34288e-015 4.13472e-014
rhumerus -38.7411 15.2465 -92.8097
rradius 96.5561
rwrist 4.30406
rhand -23.4151 7.98197
rfingers 7.12502
rthumb 3.04221 -21.9761
lclavicle -9.34288e-015 4.13472e-014
lhumerus -79.2518 -9.18163 100.67
lradius 89.2785
lwrist 11.9459
lhand -26.9488 -1.01288
lfingers 7.12502
lthumb -0.370634 28.9665
rfemur -7.00274 -2.50548 19.4055
rtibia 71.5278
rfoot -12.2307 -6.22523
rtoes -40.5658
lfemur -54.8599 -1.01472 -2.16774
ltibia 32.5742
lfoot -5.97221 2.50599
ltoes -20.1225
64
root -0.779312 15.4008 8.16449 -179.46 14.3306 -175.623
lowerback 14.6615 1.14863 3.27028
upperback 1.70507 2.85506 4.9568
thorax -6.52847 1.56756 2.82454
lowerneck -17.4327 0.0422834 0.685423
upperneck 10.5615 0.329339 -2.82697
head 6.04867 -0.0379836 -0.981093
rclavicle 2.72335e-014 3.65764e-014
rhumerus -39.8641 15.1159 -93.3986
rradius 95.5188
rwrist 4.33936
rhand -22.3857 7.76688
rfingers 7.12502
rthumb 4.03628 -22.1746
lclavicle 2.72335e-014 3.65764e-014
lhumerus -80.7466 -7.9615 100.601
lradius 91.1887
lwrist 12.4488
lhand -26.8812 -1.37212
lfingers 7.12502
lthumb -0.305319 28.6074
rfemur -5.76489 -1.48845 18.4929
rtibia 72.1277
rfoot -10.0761 -5.24856
rtoes -37.732
lfemur -52.821 -2.50624 -0.448059
ltibia 29.2356
lfoot -4.86687 4.39469
ltoes -18.8805
65
root -0.78952 15.3717 7.54317 -180.081 15.049 -175.541
lowerback 14.2299 1.22809 3.31377
upperback 1.78441 2.94323 5.04159
thorax -6.20985 1.61575 2.88244
lowerneck -17.4931 0.0660938 0.527613
upperneck 11.3538 0.373734 -2.56469
head 6.31233 -0.00886208 -0.870444
rclavicle 4.37326e-015 9.70069e-014
rhumerus -41.0585 14.6051 -93.8775
rradius 94.2923
rwrist 4.58826
rhand -21.3103 7.49381
rfingers 7.12502
rthumb 5.07473 -22.4254
lclavicle 4.37326e-015 9.70069e-014
lhumerus -81.9033 -6.71994 100.487
lradius 92.988
lwrist 12.7459
lhand -26.8093 -1.74974
lfingers 7.12502
lthumb -0.235921 28.2299
rfemur -4.74076 -0.583294 17.6987
rtibia 72.7232
rfoot -8.36266 -5.29362
rtoes -35.3113
lfemur -51.0677 -3.4871 0.710471
ltibia 27.578
lfoot -4.00108 5.48136
ltoes -17.261
66
root -0.804592 15.3386 6.92562 -180.72 15.8268 -175.411
lowerback 13.8977 1.24018 3.49834
upperback 1.8402 2.9725 5.12203
thorax -5.96311 1.63192 2.86606
lowerneck -17.4911 0.143072 0.407307
upperneck 12.0927 0.486585 -2.33453
head 6.55077 0.0552978 -0.767598
rclavicle -4.23411e-014 -2.70347e-014
rhumerus -42.3075 13.7035 -94.2113
rradius 92.9138
rwrist 5.08682
rhand -20.2756 7.19663
rfingers 7.12502
rthumb 6.07372 -22.6963
lclavicle -4.23411e-014 -2.70347e-014
lhumerus -82.6741 -5.52899 100.376
lradius 94.6865
lwrist 12.8479
lhand -26.7698 -2.11648
lfingers 7.12502
lthumb -0.197775 27.8632
rfemur -3.97999 0.152195 16.9887
rtibia 73.2856
rfoot -7.09682 -6.22907
rtoes -33.5781
lfemur -49.6813 -3.75711 1.15524
ltibia 27.5834
lfoot -3.13505 5.61248
ltoes -14.362
67
root -0.824748 15.3003 6.31643 -181.387 16.611 -175.27
lowerback 13.723 1.17694 3.79836
upperback 1.86662 2.93062 5.18546
thorax -5.82681 1.60995 2.77633
lowerneck -17.4049 0.271499 0.349754
upperneck 12.7222 0.665455 -2.17765
head 6.74175 0.150864 -0.68998
rclavicle -2.44505e-014 5.40694e-014
rhumerus -43.6007 12.42 -94.356
rradius 91.4258
rwrist 5.74605
rhand -19.3675 6.90545
rfingers 7.12502
rthumb 6.95039 -22.9604
lclavicle -2.44505e-014 5.40694e-014
lhumerus -83.0065 -4.45081 100.315
lradius 96.2805
lwrist 12.7868
lhand -26.7617 -2.40658
lfingers 7.12502
lthumb -0.189946 27.5731
rfemur -3.51825 0.630747 16.3109
rtibia 73.8303
rfoot -6.23738 -7.88006
rtoes -32.686
lfemur -48.6449 -3.3683 0.957963
ltibia 28.983
lfoot -1.91999 4.69088
ltoes -13.0672
68
root -0.848132 15.258 5.72111 -182.092 17.3553 -175.194
lowerback 13.7435 1.04645 4.10879
upperback 1.85437 2.81379 5.22002
thorax -5.83655 1.54821 2.65943
lowerneck -17.1961 0.447085 0.369702
upperneck 13.1805 0.9057 -2.12839
head 6.85839 0.273113 -0.651997
rclavicle 1.16289e-014 -7.95139e-015
rhumerus -44.9215 10.7705 -94.2614
rradius 89.8511
rwrist 6.39233
rhand -18.6643 6.62193
rfingers 7.12502
rthumb 7.62921 -23.2205
lclavicle 1.16289e-014 -7.95139e-015
lhumerus -82.8523 -3.54131 100.344
lradius 97.7551
lwrist 12.5907
lhand -26.8394 -2.63783
lfingers 7.12502
lthumb -0.264993 27.3417
rfemur -3.40711 0.783919 15.5873
rtibia 74.4053
rfoot -5.78654 -10.0293
rtoes -32.5552
lfemur -47.922 -2.43654 0.222661
ltibia 31.4042
lfoot -0.321533 3.10999
ltoes -12.232
69
root -0.872576 15.2135 5.14384 -182.867 18.0177 -175.307
lowerback 13.9669 0.865406 4.26988
upperback 1.81061 2.61674 5.20542
thorax -5.99559 1.44521 2.58582
lowerneck -16.8798 0.664494 0.46369
upperneck 13.4633 1.20145 -2.18957
head 6.90178 0.41815 -0.655562
rclavicle 4.73108e-014 4.92986e-014
rhumerus -46.264 8.79517 -93.8745
rradius 88.2221
rwrist 6.79869
rhand -18.2401 6.3172
rfingers 7.12502
rthumb 8.03856 -23.5099
lclavicle 4.73108e-014 4.92986e-014
lhumerus -82.1575 -2.85249 100.471
lradius 99.0795
lwrist 12.2717
lhand -27.0221 -2.82969
lfingers 7.12502
lthumb -0.44141 27.1496
rfemur -3.67709 0.577516 14.6957
rtibia 75.089
rfoot -5.78602 -12.4417
rtoes -32.7786
lfemur -47.4813 -1.17449 -0.962133
ltibia 34.5128
lfoot 1.69778 1.35647
ltoes -11.2965
